<svg width="101" height="17" viewBox="0 0 101 17" fill="none" xmlns="http://www.w3.org/2000/svg">
<path d="M14.0778 6.02882C14.6911 6.68345 14.9962 7.59549 14.9962 8.76175V15.7498C14.9962 15.8197 14.9707 15.8801 14.9231 15.9277C14.8754 15.9754 14.815 16.0008 14.7451 16.0008H12.8225C12.7526 16.0008 12.6922 15.9754 12.6446 15.9277C12.5937 15.8801 12.5715 15.8197 12.5715 15.7498V9.26703C12.5715 8.61875 12.3999 8.10712 12.0535 7.72578C11.7071 7.34444 11.2463 7.15695 10.6711 7.15695C10.0959 7.15695 9.62245 7.34762 9.257 7.72578C8.89155 8.10712 8.70724 8.61239 8.70724 9.24478V15.7466C8.70724 15.8165 8.68182 15.8769 8.63415 15.9246C8.58648 15.9722 8.5261 15.9977 8.45619 15.9977H6.53361C6.46369 15.9977 6.40332 15.9722 6.35565 15.9246C6.3048 15.8769 6.28256 15.8165 6.28256 15.7466V9.26385C6.28256 8.61557 6.10778 8.10394 5.75504 7.7226C5.4023 7.34126 4.93834 7.15377 4.36315 7.15377C3.82928 7.15377 3.38756 7.30949 3.04435 7.61774C2.69797 7.92598 2.49777 8.34864 2.44375 8.88569V15.7466C2.44375 15.8165 2.41832 15.8769 2.37066 15.9246C2.32299 15.9722 2.26261 15.9977 2.1927 15.9977H0.251046C0.181134 15.9977 0.120756 15.9722 0.0730886 15.9246C0.0222434 15.8769 0 15.8165 0 15.7466V5.46953C0 5.39961 0.0254212 5.33924 0.0730886 5.29157C0.120756 5.2439 0.181134 5.21848 0.251046 5.21848H2.1927C2.26261 5.21848 2.32299 5.2439 2.37066 5.29157C2.41832 5.34241 2.44375 5.39961 2.44375 5.46953V6.16547C2.44375 6.20678 2.45646 6.23538 2.48506 6.25127C2.51366 6.26398 2.54226 6.25127 2.57086 6.20996C2.87911 5.81591 3.26363 5.52355 3.72123 5.33288C4.17884 5.14221 4.68729 5.04688 5.25294 5.04688C5.94253 5.04688 6.54632 5.1867 7.06748 5.46953C7.58864 5.75235 7.98905 6.15911 8.27188 6.69299C8.31319 6.75019 8.36403 6.75019 8.42123 6.69299C8.72948 6.13051 9.16167 5.71422 9.70825 5.44728C10.258 5.18034 10.8682 5.04688 11.545 5.04688C12.6287 5.04688 13.4772 5.37419 14.0905 6.02882H14.0778Z" fill="#6B70F0"/>
<path d="M17.5965 3.3194C17.3137 3.03658 17.1738 2.68066 17.1738 2.24212C17.1738 1.80358 17.3137 1.44766 17.5965 1.16484C17.8793 0.882012 18.2384 0.742188 18.6738 0.742188C19.1091 0.742188 19.4682 0.882012 19.751 1.16484C20.0339 1.44766 20.1737 1.80676 20.1737 2.24212C20.1737 2.67748 20.0339 3.03658 19.751 3.3194C19.4682 3.60223 19.1091 3.74205 18.6738 3.74205C18.2384 3.74205 17.8793 3.60223 17.5965 3.3194ZM17.4789 15.9322C17.4281 15.8845 17.4058 15.8241 17.4058 15.7542V5.45172C17.4058 5.38181 17.4312 5.32143 17.4789 5.27377C17.5266 5.2261 17.5869 5.20067 17.6569 5.20067H19.5985C19.6684 5.20067 19.7288 5.2261 19.7765 5.27377C19.8241 5.32461 19.8496 5.38181 19.8496 5.45172V15.7542C19.8496 15.8241 19.8241 15.8845 19.7765 15.9322C19.7256 15.983 19.6684 16.0053 19.5985 16.0053H17.6569C17.5869 16.0053 17.5266 15.9799 17.4789 15.9322V15.9322Z" fill="#6B70F0"/>
<path d="M22.5243 15.9272C22.4734 15.8795 22.4512 15.8191 22.4512 15.7492V1.47761C22.4512 1.4077 22.4766 1.34732 22.5243 1.29965C22.5719 1.25198 22.6323 1.22656 22.7022 1.22656H24.6439C24.7138 1.22656 24.7742 1.25198 24.8218 1.29965C24.8695 1.3505 24.8949 1.4077 24.8949 1.47761V15.7492C24.8949 15.8191 24.8695 15.8795 24.8218 15.9272C24.7742 15.9748 24.7138 16.0003 24.6439 16.0003H22.7022C22.6323 16.0003 22.5719 15.9748 22.5243 15.9272V15.9272Z" fill="#6B70F0"/>
<path d="M27.5984 3.3194C27.3156 3.03658 27.1758 2.68066 27.1758 2.24212C27.1758 1.80358 27.3156 1.44766 27.5984 1.16484C27.8813 0.882012 28.2404 0.742188 28.6757 0.742188C29.1111 0.742188 29.4702 0.882012 29.753 1.16484C30.0358 1.44766 30.1756 1.80676 30.1756 2.24212C30.1756 2.67748 30.0358 3.03658 29.753 3.3194C29.4702 3.60223 29.1111 3.74205 28.6757 3.74205C28.2404 3.74205 27.8813 3.60223 27.5984 3.3194ZM27.4809 15.9322C27.43 15.8845 27.4078 15.8241 27.4078 15.7542V5.45172C27.4078 5.38181 27.4332 5.32143 27.4809 5.27377C27.5285 5.2261 27.5889 5.20067 27.6588 5.20067H29.6005C29.6704 5.20067 29.7308 5.2261 29.7784 5.27377C29.8261 5.32461 29.8515 5.38181 29.8515 5.45172V15.7542C29.8515 15.8241 29.8261 15.8845 29.7784 15.9322C29.7276 15.983 29.6704 16.0053 29.6005 16.0053H27.6588C27.5889 16.0053 27.5285 15.9799 27.4809 15.9322V15.9322Z" fill="#6B70F0"/>
<path d="M31.8133 15.928C31.7625 15.8803 31.7402 15.82 31.7402 15.7501V13.9546C31.7402 13.8275 31.7752 13.729 31.8451 13.6591L37.0377 7.55763C37.1076 7.47183 37.0853 7.43052 36.9741 7.43052H32.0961C32.0262 7.43052 31.9659 7.40509 31.9182 7.35743C31.8673 7.30976 31.8451 7.24938 31.8451 7.17947V5.4698C31.8451 5.39989 31.8705 5.33951 31.9182 5.29184C31.9659 5.24417 32.0262 5.21875 32.0961 5.21875H39.7801C39.85 5.21875 39.9104 5.24417 39.9581 5.29184C40.0058 5.34269 40.0312 5.39989 40.0312 5.4698V7.26527C40.0312 7.37649 39.9899 7.475 39.9041 7.56081L34.6035 13.6622C34.5463 13.748 34.5685 13.7893 34.667 13.7893H39.8405C39.9104 13.7893 39.9708 13.8148 40.0185 13.8624C40.0661 13.9133 40.0916 13.9705 40.0916 14.0404V15.7501C40.0916 15.82 40.0661 15.8803 40.0185 15.928C39.9708 15.9757 39.9104 16.0011 39.8405 16.0011H31.9881C31.9182 16.0011 31.8578 15.9757 31.8101 15.928H31.8133Z" fill="#6B70F0"/>
<path d="M50.6132 10.5795L50.5909 11.2341C50.5909 11.4025 50.5051 11.4883 50.3367 11.4883H43.73C43.6601 11.4883 43.6252 11.5233 43.6252 11.5932C43.6665 12.0572 43.73 12.3749 43.8158 12.5434C44.1527 13.5571 44.9757 14.0719 46.285 14.0846C47.2415 14.0846 48.001 13.6906 48.5635 12.9025C48.6207 12.8167 48.6906 12.7753 48.7732 12.7753C48.8304 12.7753 48.8781 12.7976 48.9194 12.8389L50.2287 13.9162C50.3558 14.0147 50.3749 14.1259 50.2922 14.253C49.8569 14.8727 49.2753 15.3494 48.5508 15.6894C47.8262 16.0263 47.0191 16.1947 46.1325 16.1947C45.0361 16.1947 44.1018 15.95 43.336 15.4543C42.5701 14.9617 42.0076 14.2721 41.6581 13.3855C41.3339 12.626 41.1719 11.5709 41.1719 10.2172C41.1719 9.40049 41.2577 8.73951 41.4261 8.23423C41.7089 7.24911 42.2396 6.47054 43.0214 5.90171C43.8031 5.33288 44.7406 5.04688 45.8401 5.04688C48.6112 5.04688 50.1747 6.49596 50.5274 9.39732C50.5846 9.75006 50.6132 10.1441 50.6132 10.5795V10.5795ZM44.5435 7.551C44.1972 7.81158 43.9557 8.17385 43.8158 8.63782C43.73 8.87615 43.676 9.18758 43.6474 9.56574C43.6188 9.63565 43.6474 9.67061 43.7332 9.67061H48.0201C48.09 9.67061 48.125 9.63565 48.125 9.56574C48.0964 9.213 48.055 8.94607 47.9978 8.76493C47.8707 8.25966 47.6197 7.86561 47.2479 7.58278C46.8761 7.29995 46.4058 7.16013 45.8433 7.16013C45.3221 7.16013 44.8899 7.29042 44.5435 7.551V7.551Z" fill="#6B70F0"/>
<path d="M62.1869 0.5C63.4657 0.5 64.4887 0.921251 65.256 1.76375C66.0383 2.59121 66.4295 3.68947 66.4295 5.05853C66.4295 6.39751 66.0383 7.48072 65.256 8.30818C64.4887 9.12059 63.4657 9.5268 62.1869 9.5268H59.1629C59.1027 9.5268 59.0726 9.55689 59.0726 9.61707V16.0938C59.0726 16.2442 58.9974 16.3195 58.8469 16.3195H57.1319C56.9814 16.3195 56.9062 16.2442 56.9062 16.0938V0.72567C56.9062 0.575223 56.9814 0.5 57.1319 0.5H62.1869ZM61.8709 7.78914C62.5931 7.78914 63.1723 7.54843 63.6086 7.067C64.0599 6.57052 64.2856 5.91608 64.2856 5.10367C64.2856 4.27621 64.0599 3.61425 63.6086 3.11777C63.1723 2.6213 62.5931 2.37306 61.8709 2.37306H59.1629C59.1027 2.37306 59.0726 2.40315 59.0726 2.46333V7.69887C59.0726 7.75905 59.1027 7.78914 59.1629 7.78914H61.8709Z" fill="#6B70F0"/>
<path d="M71.5986 4.65233C72.8473 4.65233 73.8478 5.00588 74.6 5.71298C75.3523 6.40503 75.7284 7.31523 75.7284 8.44358V16.0938C75.7284 16.2442 75.6532 16.3195 75.5027 16.3195H73.7876C73.6372 16.3195 73.5619 16.2442 73.5619 16.0938V15.4394C73.5619 15.4093 73.5469 15.3942 73.5168 15.3942C73.5018 15.3792 73.4792 15.3867 73.4491 15.4168C72.7721 16.1389 71.8318 16.5 70.6282 16.5C69.6503 16.5 68.8154 16.2367 68.1233 15.7102C67.4312 15.1685 67.0852 14.3035 67.0852 13.115C67.0852 11.8813 67.4839 10.9485 68.2813 10.3166C69.0937 9.66972 70.1919 9.34626 71.576 9.34626H73.4717C73.5319 9.34626 73.5619 9.31617 73.5619 9.25599V8.62412C73.5619 7.9772 73.3889 7.46568 73.0429 7.08956C72.7119 6.71345 72.2305 6.52539 71.5986 6.52539C71.1021 6.52539 70.6884 6.65327 70.3574 6.90903C70.0415 7.14974 69.8459 7.48072 69.7707 7.90197C69.7556 8.03738 69.6729 8.10508 69.5225 8.10508L67.672 7.99224C67.6118 7.99224 67.5591 7.9772 67.514 7.94711C67.4689 7.90198 67.4538 7.84932 67.4689 7.78914C67.5591 6.85637 67.9804 6.10414 68.7326 5.53244C69.4999 4.9457 70.4552 4.65233 71.5986 4.65233ZM71.1021 14.6495C71.7641 14.6495 72.3358 14.4614 72.8172 14.0853C73.3137 13.7092 73.5619 13.2052 73.5619 12.5733V11.1291C73.5619 11.0689 73.5319 11.0388 73.4717 11.0388H71.734C70.9968 11.0388 70.4026 11.2043 69.9512 11.5353C69.5149 11.8662 69.2968 12.3477 69.2968 12.9796C69.2968 13.5362 69.4623 13.9575 69.7933 14.2433C70.1242 14.5141 70.5605 14.6495 71.1021 14.6495Z" fill="#6B70F0"/>
<path d="M82.565 4.6749C83.6633 4.6749 84.5133 5.0134 85.1151 5.69041C85.7319 6.36742 86.0403 7.30019 86.0403 8.48872V16.0938C86.0403 16.2442 85.9651 16.3195 85.8146 16.3195H84.0995C83.9491 16.3195 83.8739 16.2442 83.8739 16.0938V8.80466C83.8739 8.1126 83.6933 7.56347 83.3323 7.15726C82.9862 6.75106 82.5123 6.54796 81.9106 6.54796C81.2937 6.54796 80.7972 6.75858 80.4211 7.17983C80.0601 7.58604 79.8795 8.13517 79.8795 8.82722V16.0938C79.8795 16.2442 79.8043 16.3195 79.6539 16.3195H77.9388C77.7883 16.3195 77.7131 16.2442 77.7131 16.0938V5.05853C77.7131 4.90809 77.7883 4.83286 77.9388 4.83286H79.6539C79.8043 4.83286 79.8795 4.90809 79.8795 5.05853V5.75811C79.8795 5.80324 79.887 5.83333 79.9021 5.84838C79.9322 5.84838 79.9623 5.82581 79.9924 5.78068C80.5791 5.04349 81.4366 4.6749 82.565 4.6749Z" fill="#6B70F0"/>
<path d="M91.9754 14.6269C92.487 14.6269 92.9157 14.5066 93.2618 14.2659C93.6228 14.0101 93.8936 13.6641 94.0742 13.2278C94.1193 13.0924 94.2096 13.0397 94.345 13.0698L95.8795 13.4083C96.03 13.4535 96.0826 13.5437 96.0375 13.6791C95.7516 14.5668 95.2552 15.2588 94.5481 15.7553C93.841 16.2518 92.9759 16.5 91.9529 16.5C90.7794 16.5 89.8316 16.2066 89.1094 15.6199C88.3873 15.0331 87.9284 14.2283 87.7328 13.2052C87.6576 12.784 87.605 12.3402 87.5749 11.8738C87.5598 11.3923 87.5523 10.7605 87.5523 9.97814C87.5523 9.21086 87.5899 8.60155 87.6651 8.15021C87.8005 7.09709 88.2444 6.25458 88.9966 5.62271C89.7488 4.97579 90.6966 4.65233 91.84 4.65233C93.0887 4.65233 94.0967 5.00588 94.864 5.71298C95.6313 6.42008 96.0601 7.35284 96.1503 8.51128C96.1955 9.0228 96.218 9.96309 96.218 11.3322C96.218 11.4826 96.1428 11.5578 95.9924 11.5578H89.809C89.7488 11.5578 89.7187 11.5879 89.7187 11.6481C89.7187 12.0693 89.7413 12.4379 89.7864 12.7539C89.8617 13.3105 90.0949 13.7619 90.486 14.1079C90.8772 14.4539 91.3736 14.6269 91.9754 14.6269ZM91.8626 6.52539C91.2909 6.52539 90.817 6.6984 90.4409 7.04443C90.0798 7.39046 89.8617 7.8418 89.7864 8.39845C89.7413 8.80466 89.7187 9.24847 89.7187 9.7299C89.7187 9.79008 89.7488 9.82017 89.809 9.82017H93.9613C94.0215 9.82017 94.0516 9.79008 94.0516 9.7299C94.0215 9.12812 93.9914 8.69182 93.9613 8.42102C93.8861 7.86436 93.6604 7.41302 93.2843 7.067C92.9082 6.70592 92.4343 6.52539 91.8626 6.52539Z" fill="#6B70F0"/>
<path d="M98.6252 16.4699C98.4747 16.4699 98.3995 16.3947 98.3995 16.2442V0.898683C98.3995 0.748236 98.4747 0.673013 98.6252 0.673013H100.34C100.491 0.673013 100.566 0.748236 100.566 0.898683V16.2442C100.566 16.3947 100.491 16.4699 100.34 16.4699H98.6252Z" fill="#6B70F0"/>
</svg>
